<svg width="100" height="100" viewBox="0 0 100 100" fill="none" xmlns="http://www.w3.org/2000/svg">
<path d="M31.18 47.72V46.766H31.306C31.678 46.766 31.996 46.742 32.26 46.694C32.524 46.646 32.722 46.55 32.854 46.406C32.998 46.262 33.07 46.052 33.07 45.776L34.24 46.676H37.39V47.72H31.18ZM34.546 52.94C34.546 53.456 34.612 53.876 34.744 54.2C34.888 54.512 35.086 54.74 35.338 54.884C35.602 55.016 35.914 55.082 36.274 55.082C36.538 55.082 36.784 55.058 37.012 55.01C37.252 54.962 37.438 54.92 37.57 54.884V55.928C37.462 55.976 37.324 56.018 37.156 56.054C37 56.102 36.832 56.132 36.652 56.144C36.484 56.168 36.304 56.18 36.112 56.18C35.572 56.18 35.056 56.09 34.564 55.91C34.084 55.73 33.694 55.406 33.394 54.938C33.094 54.458 32.944 53.798 32.944 52.958V46.964L33.07 46.838V44.084H34.546V52.94ZM41.6133 46.676V53.138C41.6133 53.57 41.6613 53.93 41.7573 54.218C41.8533 54.494 42.0093 54.698 42.2253 54.83C42.4533 54.962 42.7593 55.028 43.1433 55.028C43.5393 55.028 43.9113 54.95 44.2593 54.794C44.6193 54.638 44.9613 54.41 45.2853 54.11C45.6093 53.798 45.9213 53.414 46.2213 52.958V54.11C45.9093 54.566 45.5793 54.95 45.2313 55.262C44.8953 55.562 44.5293 55.79 44.1333 55.946C43.7373 56.102 43.2993 56.18 42.8193 56.18C42.2553 56.18 41.7573 56.078 41.3253 55.874C40.9053 55.67 40.5813 55.358 40.3533 54.938C40.1253 54.518 40.0113 53.99 40.0113 53.354V48.386C40.0113 48.122 39.8973 47.942 39.6693 47.846C39.4533 47.738 39.1173 47.648 38.6613 47.576L38.4273 47.54V46.676H41.6133ZM47.5173 46.676V54.47C47.5173 54.638 47.5773 54.77 47.6973 54.866C47.8293 54.962 48.0033 55.034 48.2193 55.082C48.4473 55.118 48.7113 55.136 49.0113 55.136L49.0833 55.154V56H46.1133L46.0413 54.056L45.9153 53.858V48.386C45.9153 48.122 45.8013 47.942 45.5733 47.846C45.3453 47.738 44.9973 47.654 44.5293 47.594L44.1153 47.54V46.676H47.5173ZM56.621 46.55V48.206C56.537 48.17 56.435 48.146 56.315 48.134C56.207 48.11 56.093 48.092 55.973 48.08C55.853 48.068 55.733 48.062 55.613 48.062C55.289 48.062 55.001 48.104 54.749 48.188C54.509 48.272 54.287 48.398 54.083 48.566C53.891 48.734 53.705 48.944 53.525 49.196C53.357 49.448 53.177 49.754 52.985 50.114V49.052C53.201 48.524 53.453 48.074 53.741 47.702C54.029 47.318 54.359 47.024 54.731 46.82C55.103 46.604 55.523 46.496 55.991 46.496C56.123 46.496 56.249 46.502 56.369 46.514C56.489 46.514 56.573 46.526 56.621 46.55ZM50.159 56V55.172H50.213C50.657 55.172 51.011 55.124 51.275 55.028C51.551 54.92 51.689 54.71 51.689 54.398V48.386C51.689 48.206 51.641 48.074 51.545 47.99C51.449 47.894 51.299 47.816 51.095 47.756C50.903 47.696 50.651 47.636 50.339 47.576L50.159 47.54V46.676H53.093L53.165 49.25L53.291 49.124V54.614C53.291 54.782 53.375 54.908 53.543 54.992C53.723 55.064 53.927 55.112 54.155 55.136C54.395 55.16 54.599 55.172 54.767 55.172H55.091V56H50.159ZM57.7879 56V55.172H57.8419C58.1299 55.172 58.3879 55.154 58.6159 55.118C58.8439 55.07 59.0179 54.992 59.1379 54.884C59.2579 54.764 59.3179 54.602 59.3179 54.398V48.386C59.3179 48.206 59.2699 48.074 59.1739 47.99C59.0779 47.894 58.9279 47.816 58.7239 47.756C58.5319 47.696 58.2799 47.636 57.9679 47.576L57.7879 47.54V46.676H60.7219L60.7939 48.638L60.9199 48.8V54.992C60.9199 55.028 60.9919 55.064 61.1359 55.1C61.2799 55.124 61.4539 55.142 61.6579 55.154C61.8619 55.166 62.0479 55.172 62.2159 55.172H62.2879V56H57.7879ZM68.4439 56H63.9439V55.172H63.9979C64.1659 55.172 64.3519 55.166 64.5559 55.154C64.7599 55.142 64.9339 55.124 65.0779 55.1C65.2339 55.064 65.3119 55.028 65.3119 54.992V49.538C65.3119 49.106 65.2579 48.752 65.1499 48.476C65.0539 48.2 64.8919 47.996 64.6639 47.864C64.4479 47.72 64.1479 47.648 63.7639 47.648C63.3679 47.648 62.9839 47.726 62.6119 47.882C62.2519 48.038 61.9039 48.272 61.5679 48.584C61.2439 48.896 60.9259 49.286 60.6139 49.754V48.602C60.9499 48.134 61.2919 47.744 61.6399 47.432C61.9879 47.12 62.3599 46.886 62.7559 46.73C63.1639 46.574 63.6079 46.496 64.0879 46.496C64.6639 46.496 65.1619 46.598 65.5819 46.802C66.0019 47.006 66.3259 47.318 66.5539 47.738C66.7939 48.158 66.9139 48.692 66.9139 49.34V54.398C66.9139 54.602 66.9739 54.764 67.0939 54.884C67.2139 54.992 67.3879 55.07 67.6159 55.118C67.8439 55.154 68.1019 55.172 68.3899 55.172H68.4439V56Z" fill="black"/>
</svg>
